<svg id="Layer_1" data-name="Layer 1" xmlns="http://www.w3.org/2000/svg" viewBox="0 0 383 682"><defs><style>.cls-1{fill:#aaa897;}.cls-2{fill:#ffc0c0;}.cls-3{opacity:0.4;}.cls-4{fill:#fff;}</style></defs><path class="cls-1" d="M364.76,169.29C362.67,133.83,353.43,66,325.86,57.66c-27.29-8.27-39.75,10.15-39.75,10.15s-6.77-57.51-42.29-66c-43.9-10.45-57.3,27.91-57.3,27.91S173.12-8.61,129.21,1.84c-35.52,8.46-42.28,66-42.28,66S74.47,49.39,47.18,57.66C19.61,66,10.37,133.83,8.28,169.29,6,208.37-.18,681.71-.18,681.71H382.76S367.07,208.37,364.76,169.29Z"/><path class="cls-2" d="M192.8,144.68c-56.48,0-108.5,43.11-78.78,72.84s47.27-8.92,80.27-8.92c31.21,0,47.56,31.21,74.32,13.37S256.72,144.68,192.8,144.68Z"/><path class="cls-2" d="M54.87,82.72c-15.3,1.37-19.15,17.84-17.23,34.56s11.49,27.86,22,26.75,19.15-16.72,18.19-34.56S67.32,81.61,54.87,82.72Z"/><path class="cls-2" d="M143.26,86.44c10.54-1.12,19.16-16.72,18.2-34.56s-10.54-27.87-23-26.75C123.17,26.5,119.33,43,121.24,59.68S132.73,87.55,143.26,86.44Z"/><path class="cls-2" d="M235.79,86.44c10.53-1.12,19.15-16.72,18.19-34.56S243.45,24,231,25.13C215.69,26.5,211.85,43,213.76,59.68S225.25,87.55,235.79,86.44Z"/><path class="cls-2" d="M333.12,109.47c-.95-17.83-10.53-27.86-23-26.75-15.3,1.37-19.15,17.84-17.23,34.56s11.49,27.86,22,26.75S334.08,127.31,333.12,109.47Z"/><g class="cls-3"><path class="cls-4" d="M153.18,163.57c-26.66,11.62-37.65,31-28.79,39.86s22.57-18.22,39.86-22.15c16.24-3.69,42.53-5.32,44.3-13.28C211.5,154.71,182,151,153.18,163.57Z"/><path class="cls-4" d="M52.79,92c-7-.37-8.41,9.57-8.86,16.24-.38,5.56-.13,13.6,5,14.34s6-7.69,7.52-12.86S58.47,92.27,52.79,92Z"/><path class="cls-4" d="M132.75,61.63c5.17.74,6-7.68,7.51-12.85s2-17.41-3.69-17.72c-6.95-.37-8.41,9.57-8.86,16.24C127.34,52.86,127.58,60.9,132.75,61.63Z"/><path class="cls-4" d="M229.58,32.17c-7-.38-8.41,9.57-8.85,16.24-.38,5.56-.14,13.59,5,14.33s6-7.69,7.51-12.85S235.26,32.48,229.58,32.17Z"/><path class="cls-4" d="M311.15,90.49c-6.95-.38-8.41,9.57-8.85,16.24-.38,5.56-.14,13.59,5,14.33s6-7.69,7.52-12.86S316.83,90.8,311.15,90.49Z"/></g></svg>